# xmcd CD database file
#
# Track frame offsets:
#	150
#	18362
#	37879
#	57377
#	78637
#	94997
#	113800
#	137002
#	160112
#	180934
#	200268
#
# Disc length: 2966 seconds
#
# Revision: 0
# Processed by: cddbd v1.4PL0 Copyright (c) Steve Scherf et al.
# Submitted via: CDex 1.51
#
DISCID=850b940b
DTITLE=Cecilia - Inner Harmony
DYEAR=2001
DGENRE=New Age
TTITLE0=Fly Away
TTITLE1=Losing Faith
TTITLE2=We Have Met Before
TTITLE3=The Prayer
TTITLE4=Today
TTITLE5=Wisdom Of Your Heart
TTITLE6=Inner Harmony
TTITLE7=Carpe Diem
TTITLE8=Å Eg Veit Meg Eit Land
TTITLE9=In Dreams
TTITLE10=Angel of Love
EXTD=YEAR: 2001
EXTT0=
EXTT1=
EXTT2=
EXTT3=
EXTT4=
EXTT5=
EXTT6=
EXTT7=
EXTT8=
EXTT9=
EXTT10=
PLAYORDER=
